<svg width="108" height="108" viewBox="0 0 108 108" fill="none" xmlns="http://www.w3.org/2000/svg">
<path d="M64.8619 61.3006L75.9992 64.2672C83.0638 66.1276 88.6196 70.6027 91.0332 76.3598L94.5025 84.7316C52.3169 99.1875 13.5 84.6561 13.5 84.6561L16.9693 76.2843C19.3829 70.5524 24.939 66.0522 32.0033 64.1918L42.3864 61.4264" fill="#8B5B85"/>
<path d="M60.3205 78.7339C60.9732 78.7339 61.5023 78.2048 61.5023 77.5521C61.5023 76.8995 60.9732 76.3704 60.3205 76.3704C59.6678 76.3704 59.1387 76.8995 59.1387 77.5521C59.1387 78.2048 59.6678 78.7339 60.3205 78.7339Z" fill="white"/>
<path d="M60.3205 86.2475C60.9732 86.2475 61.5023 85.7184 61.5023 85.0658C61.5023 84.4131 60.9732 83.884 60.3205 83.884C59.6678 83.884 59.1387 84.4131 59.1387 85.0658C59.1387 85.7184 59.6678 86.2475 60.3205 86.2475Z" fill="white"/>
<path d="M37.4375 37.961C37.6932 39.3102 37.949 40.1708 37.949 40.1708C39.3446 42.0084 38.7631 46.1486 38.7631 46.1486C38.7631 46.1486 36.7396 49.3351 40.0192 51.5449C43.3222 53.7544 42.2754 62.849 42.2754 62.849C42.2754 62.849 46.0668 65.4544 46.5088 66.5009C46.9507 67.5243 50.7421 69.6877 53.6262 68.3151C56.4873 69.6877 60.3017 67.5243 60.7437 66.5009C61.1857 65.4543 64.977 62.849 64.977 62.849C64.977 62.849 64.1629 55.8247 66.2098 52.6148C66.2331 52.6148 66.2331 52.6148 66.2331 52.6148C66.4891 52.1728 66.838 51.8007 67.2332 51.5449C70.5129 49.3352 68.4893 46.1486 68.4893 46.1486C68.4893 46.1486 67.9078 42.0084 69.3035 40.1708C69.3035 40.1708 69.5361 39.403 69.7685 38.1472" fill="#8D8D8D"/>
<path d="M53.4 44.9365C53.4 44.9365 52.1927 47.5989 51.6322 48.4395C51.6322 48.4395 50.9052 49.6863 51.3072 50.4397C51.709 51.1932 52.0218 51.8462 53.3723 52.1977H53.649C54.9995 51.8462 55.3123 51.1932 55.7141 50.4397C56.1158 49.6863 55.3888 48.4395 55.3888 48.4395C54.8283 47.5989 53.6213 44.9365 53.6213 44.9365" fill="white"/>
<path d="M43.8434 52.7319C43.8434 52.7319 43.2725 54.9365 45.5639 57.7027C47.8552 60.4689 50.119 62.7038 53.2138 62.3744C56.3086 62.045 59.0882 61.7584 61.266 58.3198C63.4438 54.8811 63.3292 52.7319 63.3292 52.7319C63.3292 52.7319 60.4936 52.0728 60.0201 55.2536C60.0201 55.2536 52.8699 58.5609 47.4827 55.6034C47.4827 55.6034 47.3262 51.9863 43.9658 52.4594" fill="white"/>
<path d="M56.7336 41.4453C56.7336 41.4453 56.3446 44.3414 57.8144 45.4221C59.2842 46.5029 61.0998 48.1888 63.1314 46.6326C65.1629 45.0764 66.0277 43.0446 63.8231 40.5806C61.6185 38.1166 56.4312 39.111 56.7336 41.4453Z" fill="white"/>
<path d="M50.4467 41.4453C50.4467 41.4453 50.8358 44.3414 49.3659 45.4221C47.8961 46.5029 46.0806 48.1888 44.049 46.6326C42.0174 45.0764 41.1529 43.0446 43.3575 40.5806C45.5618 38.1166 50.7491 39.111 50.4467 41.4453Z" fill="white"/>
<path d="M70.1241 31.8791C67.6134 18.8446 63.0894 14.0924 59.4793 16.598C55.561 19.1019 53.5147 18.734 53.567 18.7325H53.4918C53.5445 18.7301 51.5121 19.0993 47.5798 16.598C44.3316 14.3557 40.353 17.9787 37.7703 28.1866C37.4734 29.3604 37.1902 30.5996 36.9335 31.9492C36.894 31.9493 36.9561 31.9729 37.0779 32.0086L37.0334 32.0088C28.3086 32.5866 22.4849 33.6088 22.4849 34.7423C40.1943 39.4979 56.6047 39.2979 68.2304 38.0089C78.8605 36.8088 85.507 34.7423 85.507 34.7423C85.507 33.5422 79.4983 32.4346 70.1241 31.8791Z" fill="#331C1C"/>
<path d="M70.1169 31.8739C54.4794 35.7664 38.9319 32.5264 37.0869 32.0089L70.1169 31.8739Z" fill="white"/>
<path d="M37.0869 32.009L37.7619 28.184C52.8144 31.874 69.0144 28.1614 69.0144 28.1614L70.1169 31.874" fill="white"/>
<path d="M64.8619 61.3006L75.9992 64.2672C83.0638 66.1276 88.6196 70.6027 91.0332 76.3598L94.5025 84.7316C52.3169 99.1875 13.5 84.6561 13.5 84.6561L16.9693 76.2843C19.3829 70.5524 24.939 66.0522 32.0033 64.1918L42.3864 61.4264" stroke="#30302F" stroke-width="0.8" stroke-miterlimit="10" stroke-linecap="round" stroke-linejoin="round"/>
<path d="M69.7687 38.1473C69.5363 39.4032 69.3037 40.1709 69.3037 40.1709C67.9081 42.0085 68.4896 46.1487 68.4896 46.1487C68.4896 46.1487 70.5131 49.3353 67.2334 51.5451C66.8382 51.8008 66.4893 52.173 66.2333 52.6149C66.2333 52.6149 66.2333 52.6149 66.21 52.6149C64.1631 55.8248 64.9773 62.8492 64.9773 62.8492C64.9773 62.8492 61.1859 65.4545 60.7439 66.501C60.302 67.5245 56.4875 69.6878 53.6265 68.3152" stroke="#30302F" stroke-width="0.8" stroke-miterlimit="10" stroke-linecap="round" stroke-linejoin="round"/>
<path d="M53.6265 68.3151V90.6497" stroke="#30302F" stroke-width="0.8" stroke-miterlimit="10" stroke-linecap="round" stroke-linejoin="round"/>
<path d="M37.4375 37.961C37.6932 39.3102 37.949 40.1708 37.949 40.1708C39.3446 42.0084 38.7631 46.1486 38.7631 46.1486C38.7631 46.1486 36.7396 49.3351 40.0192 51.5449C43.3222 53.7544 42.2754 62.849 42.2754 62.849C42.2754 62.849 46.0668 65.4544 46.5088 66.5009C46.9507 67.5243 50.7421 69.6877 53.6262 68.3151" stroke="#30302F" stroke-width="0.8" stroke-miterlimit="10" stroke-linecap="round" stroke-linejoin="round"/>
<path d="M66.23 52.6084C66.23 52.6084 59.906 51.1988 60.0204 55.6036C60.0204 55.6036 53.5163 58.599 47.3069 55.6036C47.4212 51.1988 41.0972 52.6084 41.0972 52.6084" stroke="#30302F" stroke-width="0.8" stroke-miterlimit="10" stroke-linecap="round" stroke-linejoin="round"/>
<path d="M63.0555 52.4594C63.0555 52.4594 63.0086 61.2182 53.6328 62.3744" stroke="#30302F" stroke-width="0.8" stroke-miterlimit="10" stroke-linecap="round" stroke-linejoin="round"/>
<path d="M43.9658 52.4594C43.9658 52.4594 44.0128 61.2182 53.3885 62.3744" stroke="#30302F" stroke-width="0.8" stroke-miterlimit="10" stroke-linecap="round" stroke-linejoin="round"/>
<path d="M53.6216 44.9365C53.6216 44.9365 54.8287 47.5989 55.3892 48.4395C55.3892 48.4395 56.1162 49.6863 55.7144 50.4397C55.3126 51.1932 54.9998 51.8462 53.6493 52.1977" stroke="#30302F" stroke-width="0.8" stroke-miterlimit="10" stroke-linecap="round" stroke-linejoin="round"/>
<path d="M53.4 44.9365C53.4 44.9365 52.1927 47.5989 51.6322 48.4395C51.6322 48.4395 50.9052 49.6863 51.3072 50.4397C51.709 51.1932 52.0218 51.8462 53.3723 52.1977" stroke="#30302F" stroke-width="0.8" stroke-miterlimit="10" stroke-linecap="round" stroke-linejoin="round"/>
<path d="M56.7336 41.4453C56.7336 41.4453 56.3446 44.3414 57.8144 45.4221C59.2842 46.5029 61.0998 48.1888 63.1314 46.6326C65.1629 45.0764 66.0277 43.0446 63.8231 40.5806C61.6185 38.1166 56.4312 39.111 56.7336 41.4453Z" stroke="#30302F" stroke-width="0.8" stroke-miterlimit="10" stroke-linecap="round" stroke-linejoin="round"/>
<path d="M50.4467 41.4453C50.4467 41.4453 50.8358 44.3414 49.3659 45.4221C47.8961 46.5029 46.0806 48.1888 44.049 46.6326C42.0174 45.0764 41.1529 43.0446 43.3575 40.5806C45.5618 38.1166 50.7491 39.111 50.4467 41.4453Z" stroke="#30302F" stroke-width="0.8" stroke-miterlimit="10" stroke-linecap="round" stroke-linejoin="round"/>
<path d="M60.0205 55.6035V59.1959" stroke="#30302F" stroke-width="0.8" stroke-miterlimit="10" stroke-linecap="round" stroke-linejoin="round"/>
<path d="M47.3071 55.6035V59.802" stroke="#30302F" stroke-width="0.8" stroke-miterlimit="10" stroke-linecap="round" stroke-linejoin="round"/>
<path d="M69.73 31.8792C79.1042 32.4348 85.1129 33.5423 85.1129 34.7423C85.1129 34.7423 78.4664 36.809 67.8364 38.009C56.2107 39.2981 39.8002 39.498 22.0908 34.7423C22.0908 33.6089 27.9146 32.5868 36.6393 32.0089" stroke="#30302F" stroke-width="0.8" stroke-miterlimit="10" stroke-linecap="round" stroke-linejoin="round"/>
<path d="M53.1731 18.7325C53.1207 18.7341 55.1671 19.1018 59.0853 16.5979C62.6954 14.0925 67.2195 18.8445 69.7301 31.8792C52.8037 36.0891 35.9682 31.9518 36.5395 31.9492C39.0287 18.8619 43.5641 14.0979 47.1859 16.5979C51.1181 19.0992 53.1505 18.7302 53.0978 18.7325" stroke="#30302F" stroke-width="0.8" stroke-miterlimit="10" stroke-linecap="round" stroke-linejoin="round"/>
<path d="M37.3755 28.1867C52.422 31.8756 68.6159 28.1646 68.6159 28.1646" stroke="#30302F" stroke-width="0.8" stroke-miterlimit="10" stroke-linecap="round" stroke-linejoin="round"/>
<path d="M56.9194 56.6041V61.0571" stroke="#30302F" stroke-width="0.8" stroke-miterlimit="10" stroke-linecap="round" stroke-linejoin="round"/>
<path d="M53.6216 56.9695V61.4226" stroke="#30302F" stroke-width="0.8" stroke-miterlimit="10" stroke-linecap="round" stroke-linejoin="round"/>
<path d="M50.3232 56.6041V61.0571" stroke="#30302F" stroke-width="0.8" stroke-miterlimit="10" stroke-linecap="round" stroke-linejoin="round"/>
<path d="M60.3205 78.7339C60.9732 78.7339 61.5023 78.2048 61.5023 77.5521C61.5023 76.8995 60.9732 76.3704 60.3205 76.3704C59.6678 76.3704 59.1387 76.8995 59.1387 77.5521C59.1387 78.2048 59.6678 78.7339 60.3205 78.7339Z" stroke="#30302F" stroke-width="0.8" stroke-miterlimit="10" stroke-linecap="round" stroke-linejoin="round"/>
<path d="M60.3205 86.2475C60.9732 86.2475 61.5023 85.7184 61.5023 85.0658C61.5023 84.4131 60.9732 83.884 60.3205 83.884C59.6678 83.884 59.1387 84.4131 59.1387 85.0658C59.1387 85.7184 59.6678 86.2475 60.3205 86.2475Z" stroke="#30302F" stroke-width="0.8" stroke-miterlimit="10" stroke-linecap="round" stroke-linejoin="round"/>
<path d="M55.5337 53.5326C57.1427 53.2187 58.8997 52.6081 60.4644 52.6081C63.6613 52.6081 65.6756 53.5367 68.3057 55.2104C70.8349 56.82 72.5043 57.8946 75.6333 57.4704C78.3761 57.0985 82.0365 55.0515 82.0365 51.9918" stroke="#242020" stroke-width="3" stroke-linecap="round"/>
<path d="M50.6029 55.0735C48.9996 54.8524 45.9212 54.1968 44.371 55.2105C42.8997 56.1725 41.1631 58.1976 39.5087 58.7031C35.3784 59.9651 26.2573 60.082 26.2573 54.149" stroke="#242020" stroke-width="3" stroke-linecap="round"/>
<path d="M48.446 64.6268C46.5481 66.5689 44.9831 68.5225 43.9946 71.0642C43.6175 72.034 44.4393 70.8297 44.5767 70.6533C45.3569 69.6523 46.3031 68.2592 47.453 67.6401C47.4966 67.6166 47.2294 71.7641 46.9394 72.4167C46.4988 73.4079 47.1376 70.2297 47.5215 69.2152C48.0704 67.7644 48.6297 68.6986 49.0281 69.6945C50.1353 72.4626 49.8497 69.1816 50.2265 67.6058C50.3417 67.1242 50.8476 68.447 50.8771 68.9412C50.9894 70.8226 50.9114 72.7235 50.9114 74.6082C50.9114 76.1599 51.6983 73.2586 51.6989 73.2556C51.7648 72.9388 51.9875 68.4547 52.2125 68.3934C53.1213 68.1455 54.6857 75.3091 56.1503 74.7965C57.8306 74.2084 57.0748 67.1739 57.0748 65.5171C57.0748 64.5469 57.1209 67.4585 57.0748 68.4276C56.9839 70.3373 55.7437 67.1126 55.6024 67.5716C55.2595 68.6861 55.7977 69.9809 55.4997 71.0984C55.4661 71.2244 53.6383 68.3735 53.4623 67.8455C53.0499 66.6081 54.3145 67.8087 54.6779 68.051C56.0719 68.9803 57.1404 69.7799 58.1705 71.0984C58.7116 71.791 59.2819 72.5758 59.9168 73.1872C60.8949 74.129 60.366 70.718 60.3277 70.4479C60.2516 69.9109 58.9926 67.0098 59.2149 67.9482C59.6257 69.6827 60.5997 71.4411 61.3721 73.0502C62.3765 75.1426 60.5145 70.0318 60.6017 70.0027C62.4074 69.4008 58.9505 66.2346 61.3892 68.3249" stroke="#242020" stroke-width="3" stroke-linecap="round"/>
<path d="M55.157 58.129C55.0046 58.91 55.0766 59.7465 55.0766 60.5417" stroke="#242020" stroke-width="3" stroke-linecap="round"/>
<path d="M45.0107 41.3399C45.3427 41.5261 46.1858 41.9327 46.0097 41.1401C45.9711 40.9667 45.4321 41.0522 45.2984 41.0522" stroke="#242020" stroke-width="3" stroke-linecap="round"/>
<path d="M62.272 44.9361C62.3592 44.5485 62.5634 43.9104 62.4158 44.6484" stroke="#242020" stroke-width="3" stroke-linecap="round"/>
</svg>
