<svg width="35" height="35" viewBox="0 0 35 35" fill="none" xmlns="http://www.w3.org/2000/svg">
<path d="M11.1523 11.5039C11.0221 11.1784 10.8008 10.9505 10.4883 10.8203C10.1758 10.6901 9.85677 10.6901 9.53125 10.8203C8.125 11.3932 6.88151 12.2201 5.80078 13.3008C4.72005 14.3815 3.89323 15.625 3.32031 17.0312C3.1901 17.3568 3.1901 17.6758 3.32031 17.9883C3.45052 18.3008 3.67839 18.5221 4.00391 18.6523C4.17318 18.7174 4.32943 18.75 4.47266 18.75C5.01953 18.75 5.41016 18.4896 5.64453 17.9688C6.08724 16.875 6.72852 15.9082 7.56836 15.0684C8.4082 14.2285 9.375 13.5872 10.4688 13.1445C10.7943 13.0013 11.0221 12.7734 11.1523 12.4609C11.2826 12.1484 11.2826 11.8294 11.1523 11.5039ZM29.5508 4.55078L30.4492 5.44922L25.6836 10.1953L27.0117 11.5234C27.2591 11.7708 27.3828 12.0671 27.3828 12.4121C27.3828 12.7572 27.2591 13.0534 27.0117 13.3008L25.7617 14.5508C26.9206 16.6471 27.5 18.8802 27.5 21.25C27.5 23.112 27.1387 24.8926 26.416 26.5918C25.6934 28.291 24.7168 29.7559 23.4863 30.9863C22.2559 32.2168 20.791 33.1934 19.0918 33.916C17.3926 34.6387 15.612 35 13.75 35C11.888 35 10.1074 34.6387 8.4082 33.916C6.70898 33.1934 5.24414 32.2168 4.01367 30.9863C2.7832 29.7559 1.80664 28.291 1.08398 26.5918C0.361328 24.8926 0 23.112 0 21.25C0 19.388 0.361328 17.6074 1.08398 15.9082C1.80664 14.209 2.7832 12.7441 4.01367 11.5137C5.24414 10.2832 6.70898 9.30664 8.4082 8.58398C10.1074 7.86133 11.888 7.5 13.75 7.5C16.1198 7.5 18.3529 8.07943 20.4492 9.23828L21.6992 7.98828C21.9466 7.74089 22.2428 7.61719 22.5879 7.61719C22.9329 7.61719 23.2292 7.74089 23.4766 7.98828L24.8047 9.31641L29.5508 4.55078ZM29.707 3.45703C29.5768 3.58724 29.4336 3.65234 29.2773 3.65234C29.1081 3.65234 28.9583 3.58724 28.8281 3.45703L27.0508 1.69922C26.9336 1.56901 26.875 1.41927 26.875 1.25C26.875 1.08073 26.9336 0.93099 27.0508 0.800781C27.181 0.683594 27.3307 0.625 27.5 0.625C27.6693 0.625 27.819 0.683594 27.9492 0.800781L29.707 2.57812C29.8372 2.69531 29.9023 2.8418 29.9023 3.01758C29.9023 3.19336 29.8372 3.33984 29.707 3.45703ZM34.1992 7.94922C34.056 8.06641 33.9062 8.125 33.75 8.125C33.5938 8.125 33.444 8.06641 33.3008 7.94922L31.543 6.17188C31.4128 6.05469 31.3477 5.9082 31.3477 5.73242C31.3477 5.55664 31.4128 5.41016 31.543 5.29297C31.6602 5.16276 31.8066 5.09766 31.9824 5.09766C32.1582 5.09766 32.3047 5.16276 32.4219 5.29297L34.1992 7.05078C34.3164 7.18099 34.375 7.33073 34.375 7.5C34.375 7.66927 34.3164 7.81901 34.1992 7.94922ZM35 4.375C35 4.55729 34.9414 4.70703 34.8242 4.82422C34.707 4.94141 34.5573 5 34.375 5H32.5C32.3177 5 32.168 4.94141 32.0508 4.82422C31.9336 4.70703 31.875 4.55729 31.875 4.375C31.875 4.19271 31.9336 4.04297 32.0508 3.92578C32.168 3.80859 32.3177 3.75 32.5 3.75H34.375C34.5573 3.75 34.707 3.80859 34.8242 3.92578C34.9414 4.04297 35 4.19271 35 4.375ZM31.25 0.625V2.5C31.25 2.68229 31.1914 2.83203 31.0742 2.94922C30.957 3.06641 30.8073 3.125 30.625 3.125C30.4427 3.125 30.293 3.06641 30.1758 2.94922C30.0586 2.83203 30 2.68229 30 2.5V0.625C30 0.442708 30.0586 0.292969 30.1758 0.175781C30.293 0.0585938 30.4427 0 30.625 0C30.8073 0 30.957 0.0585938 31.0742 0.175781C31.1914 0.292969 31.25 0.442708 31.25 0.625ZM34.1992 1.69922L32.4219 3.45703C32.2917 3.58724 32.1484 3.65234 31.9922 3.65234C31.8229 3.65234 31.6732 3.58724 31.543 3.45703C31.4128 3.33984 31.3477 3.19336 31.3477 3.01758C31.3477 2.8418 31.4128 2.69531 31.543 2.57812L33.3008 0.800781C33.431 0.683594 33.5807 0.625 33.75 0.625C33.9193 0.625 34.069 0.683594 34.1992 0.800781C34.3164 0.93099 34.375 1.08073 34.375 1.25C34.375 1.41927 34.3164 1.56901 34.1992 1.69922Z" fill="#8B5B85"/>
</svg>
