<svg width="50" height="50" viewBox="0 0 50 50" fill="none" xmlns="http://www.w3.org/2000/svg">
<path d="M44.7603 21.8728L45.5207 19.8312L43.3498 14.5916L41.3686 13.6874L39.0748 14.452L38.5019 14.2728C37.7561 13.3562 36.9123 12.5145 35.9894 11.7645L35.8103 11.1874L36.5748 8.89159L35.6707 6.91034L30.4311 4.7395L28.3915 5.502L27.3082 7.66659L26.7748 7.94575C25.5915 7.82284 24.3998 7.82075 23.2248 7.94159L22.6915 7.6645L21.6103 5.50409L19.5707 4.7395L14.329 6.91034L13.4248 8.89159L14.1894 11.1833L14.0082 11.7583C13.0915 12.5041 12.2478 13.3478 11.4998 14.2708L10.9248 14.4499L8.63109 13.6853L6.64984 14.5895L4.479 19.8312L5.23942 21.8728L7.404 22.9562L7.68317 23.4895C7.56025 24.6708 7.56025 25.8624 7.679 27.0395L7.40192 27.5728L5.2415 28.6541L4.48109 30.6958L6.65192 35.9353L8.63317 36.8395L10.9248 36.077L11.4978 36.2562C12.2436 37.1728 13.0873 38.0145 14.0103 38.7645L14.1894 39.3374L13.4248 41.6333L14.3311 43.6145L19.5707 45.7853L21.6123 45.0228L22.6936 42.8603L23.2269 42.5812C24.4103 42.7041 25.6019 42.7041 26.779 42.5833L27.3103 42.8624L28.3915 45.0228L30.4311 45.7833L35.6707 43.6124L36.5748 41.6312L35.8123 39.3395L35.9915 38.7666C36.9103 38.0187 37.7519 37.1749 38.4998 36.2541L39.0728 36.0749L41.3686 36.8395L43.3498 35.9353L45.5207 30.6937L44.7603 28.652L42.5957 27.5687L42.3165 27.0374C42.4394 25.8562 42.4394 24.6645 42.3207 23.4853L42.5978 22.952L44.7603 21.8728ZM41.179 21.5083L40.3394 23.1166L40.3748 23.4124C40.5207 24.6333 40.5207 25.8749 40.3707 27.102L40.3353 27.3999L41.1769 29.0103L43.2186 30.0312L43.4498 30.652L41.8582 34.4916L41.2561 34.7666L39.0894 34.0458L37.3561 34.5895L37.1707 34.8249C36.4103 35.7978 35.5311 36.677 34.5644 37.4374L34.329 37.6208L33.7853 39.3541L34.5061 41.5187L34.2311 42.1208L30.3915 43.7124L29.7707 43.4812L28.7498 41.4416L27.1415 40.5999L26.8457 40.6353C25.6269 40.7812 24.3853 40.7812 23.154 40.6312L22.8582 40.5958L21.2478 41.4374L20.2269 43.4812L19.6061 43.7124L15.7665 42.1228L15.4915 41.5208L16.2123 39.3541L15.6686 37.6208L15.4332 37.4353C14.4582 36.6708 13.579 35.7937 12.8207 34.827L12.6373 34.5916L10.9061 34.0478L8.7415 34.7708L8.13942 34.4958L6.54775 30.6562L6.779 30.0353L8.5415 29.152L8.85609 28.9416L9.66025 27.4041L9.62484 27.1083C9.479 25.8874 9.479 24.6458 9.629 23.4187L9.66442 23.1208L8.82275 21.5103L6.78109 20.4895L6.54775 19.8687L8.13942 16.0291L8.7415 15.7541L10.9082 16.4749L12.6415 15.9312L12.8269 15.6958C13.5894 14.7208 14.4665 13.8437 15.4332 13.0833L15.6686 12.8978L16.2103 11.1645L15.4915 9.00409L15.7665 8.402L19.6061 6.81034L20.2269 7.04159L21.2478 9.08117L22.8561 9.92284L23.1519 9.88742C24.3728 9.74159 25.6144 9.74159 26.8415 9.89159L27.1394 9.927L28.7498 9.08325L29.7728 7.0395L30.3936 6.80825L34.2332 8.39992L34.5082 9.002L33.7873 11.1687L34.329 12.902L34.5644 13.0874C35.5373 13.8499 36.4165 14.727 37.1769 15.6958L37.3603 15.9312L39.0936 16.4749L41.2582 15.7541L41.8603 16.0291L43.4519 19.8687L43.2207 20.4895L41.179 21.5083Z" fill="white" fill-opacity="0.94"/>
<path d="M24.9878 14.5791C19.1461 14.5791 14.394 19.3229 14.394 25.1562C14.394 30.9895 19.1461 35.7333 24.9878 35.7333C30.8295 35.7333 35.5815 30.9895 35.5815 25.1562C35.5815 19.3229 30.8295 14.5791 24.9878 14.5791ZM24.9878 33.8083C20.2086 33.8083 16.3211 29.927 16.3211 25.1562C16.3211 20.3854 20.2086 16.5041 24.9878 16.5041C29.767 16.5041 33.6545 20.3854 33.6545 25.1562C33.6545 29.927 29.767 33.8083 24.9878 33.8083Z" fill="white" fill-opacity="0.94"/>
</svg>
