<svg width="37" height="37" viewBox="0 0 37 37" fill="none" xmlns="http://www.w3.org/2000/svg">
<path d="M25.3338 18.5L35.5842 8.24959C37.4719 6.36188 37.4719 3.29926 35.5842 1.41578C33.7013 -0.471927 30.6381 -0.471927 28.7504 1.41578L18.5 11.6668L8.24959 1.41639C6.36188 -0.471321 3.29926 -0.471321 1.41578 1.41639C-0.471927 3.29926 -0.471927 6.36249 1.41578 8.2502L11.6668 18.5L1.41639 28.7504C-0.471321 30.6381 -0.471321 33.7007 1.41639 35.5842C3.29926 37.4719 6.36249 37.4719 8.2502 35.5842L18.5 25.3338L28.7504 35.5842C30.6381 37.4719 33.7007 37.4719 35.5842 35.5842C37.4719 33.7013 37.4719 30.6381 35.5842 28.7504L25.3338 18.5Z" fill="#8B5B85"/>
</svg>
