<?xml version="1.0" ?><svg viewBox="0 0 512 512" xmlns="http://www.w3.org/2000/svg"><g id="Low_birth_rate"><path d="M278.57,155.9458c-10.0166,8.1172-20.0362.8276-21.169-.0493a6,6,0,0,0-7.457,9.4014,31.2863,31.2863,0,0,0,18.6328,6.4086,27.37,27.37,0,0,0,17.5479-6.4365,6,6,0,0,0-7.5547-9.3242Z"/><path d="M219.4684,165.27a6,6,0,0,0-7.5547-9.3242c-10.0166,8.1162-20.0351.8281-21.167-.0493a6,6,0,0,0-7.459,9.4009,31.2892,31.2892,0,0,0,18.6329,6.4091A27.37,27.37,0,0,0,219.4684,165.27Z"/><path d="M234.5387,200.45a7.1345,7.1345,0,1,0,7.1343,7.1345A7.1344,7.1344,0,0,0,234.5387,200.45Z"/><path d="M262.4245,185.0742a22.3388,22.3388,0,0,0-9.7774,2.2442,27.129,27.129,0,0,0-36.2168,0,22.51,22.51,0,1,0,0,40.5326,27.1283,27.1283,0,0,0,36.2163,0,22.5067,22.5067,0,1,0,9.7776-42.7768Zm-55.7715,34.021a11.5105,11.5105,0,1,1,0-23.021,11.3891,11.3891,0,0,1,3.0625.4256,27.0955,27.0955,0,0,0,0,22.17A11.386,11.386,0,0,1,206.653,219.0952Zm27.8857,4.6841a16.1946,16.1946,0,1,1,16.1944-16.1948A16.2129,16.2129,0,0,1,234.5387,223.7793Zm27.8858-4.6841a11.3884,11.3884,0,0,1-3.0628-.4256,27.095,27.095,0,0,0,0-22.17,11.3846,11.3846,0,0,1,3.0625-.4256,11.5105,11.5105,0,1,1,0,23.021Z"/><path d="M216.0426,99.88a6.0292,6.0292,0,0,0-5.52,2.97,5.8088,5.8088,0,0,0-.82,2.65,5.9913,5.9913,0,0,0,3.07,5.6,5.9174,5.9174,0,0,0,2.55.75c.11.01.68.04,1.63.04a61.5078,61.5078,0,0,0,25.95-6,51.6413,51.6413,0,0,0,22.53-21.13,123.9771,123.9771,0,0,0-11.9631-3.5754C240.4289,100.86,217.3924,99.95,216.0426,99.88Z"/><path d="M352.4127,186.04a29.0785,29.0785,0,0,0,3.88-11.72,82.4119,82.4119,0,0,0,95.98-117.01,6.0106,6.0106,0,0,0-8.1828-1.7948,6.2067,6.2067,0,0,0-2.1123,7.9584c.08.1688.1536.3376.215.5064a.554.554,0,0,0,.03.07,70.5343,70.5343,0,1,1-21.29-25.53c.07.05.13.09.2.14.3.2.6.42.9.65a5.9993,5.9993,0,0,0,7.89-9.01.0774.0774,0,0,0-.04-.04,82.2866,82.2866,0,0,0-117.74,16.72c-12.35-9-28.28-16.28-48.87-19.82a162.913,162.913,0,0,0-21.18-2.2h-7.54c-61.05,2.47-88.98,34.09-101.66,60.19a130.81,130.81,0,0,0-12.78,56.09l-.08,11.25a29.0347,29.0347,0,0,0-1.71,35.33c1.16,9.86,6.86,69.14-15.43,121.35-9.56,22.38-14.39,46.27-13.97,69.1.47,24.71,7.2,47.55,19.47,66.05,30.37,45.77,85.98,55.51,127.79,55.51h2.51c20.6717,0,44.7209-2.3916,67.4268-10.3354.4719-1.172,1.18-3.5888,1.19-3.6228.0881-.3405.1677-.6711.2395-.99.2346-1.039.5986-3.6319.6434-4.1633l0-.0007c.8034-9.5147-1.0078-26.806-9.291-48.2091-7.8889-20.3849-23.9255-49.98-55.8613-78.0114A238.988,238.988,0,0,0,219.0524,336.01c-26.76-18.07-43.19-43.27-53.22-66.04a58.0329,58.0329,0,0,1,14.78-21.72,99.0849,99.0849,0,0,0,104.33,2.43c3.74,3.91,9.92,11.48,13,21.38a6.4884,6.4884,0,0,0,.72,1.5c-15.58,20.3319-34.0359,47.4821-45.985,65.6477a8.9809,8.9809,0,0,0,1.4,11.5383c30.8684,28.4435,46.3915,57.8555,54.4086,78.5722,9.0249,23.32,11.81,42.9214,10.258,55.0782,17.9252-8.4632,35.4754-21.5945,47.7389-40.0764,12.27-18.5,19-41.34,19.46-66.05a157.292,157.292,0,0,0-1.72-26.05,175.2639,175.2639,0,0,0-12.24-43.05c-24.32-56.96-19.63-122.16-19.58-122.81C352.4127,186.25,352.4127,186.15,352.4127,186.04Zm-192.52,68.77c-.81-2.36-1.57-4.66-2.25-6.89a227.2156,227.2156,0,0,1-7.06-30.69,98.022,98.022,0,0,0,20.27,23.72A72.3967,72.3967,0,0,0,159.8925,254.81Zm146.73,6.5a69.9,69.9,0,0,0-11.63-17.45,97.92,97.92,0,0,0,22.76-24.87C317.1227,230.83,314.5324,246.42,306.6225,261.31Zm20.71-72.92a16.8487,16.8487,0,0,1-3.26-.33,6.0108,6.0108,0,0,0-6.85,4.07,86.3941,86.3941,0,0,1-33.08,44.82c-.4.28-.81.56-1.22.83a6.22,6.22,0,0,0-.88.56,86.7219,86.7219,0,0,1-129.81-46.19,6.0082,6.0082,0,0,0-5.71-4.17,5.8475,5.8475,0,0,0-1.1.1,16.8112,16.8112,0,0,1-3.16.31,17.12,17.12,0,1,1,0-34.24c.27,0,.53.02.8.04l.34.03a5.9839,5.9839,0,0,0,6.28-4.86A86.571,86.571,0,0,1,253.47,81.1794a6.0239,6.0239,0,0,1,.3164-.5638c4.565-7.1538,7.4207-16.2377,8.2508-27.0585a6,6,0,1,1,11.9648.918c-.8989,11.7173-3.7682,21.87-8.5691,30.2849a86.7738,86.7738,0,0,1,31.88,21.14,82.615,82.615,0,0,0,47.06,63.97c.04.46.08.93.08,1.4A17.14,17.14,0,0,1,327.3327,188.39Z"/><path d="M387.859,51.042H370.0065a8.52,8.52,0,0,0-8.5205,8.52V96.9982a3.2308,3.2308,0,0,1-3.2307,3.2308h-6.6985a7.2378,7.2378,0,0,0-5.8731,2.8618,7.0662,7.0662,0,0,0,.5381,9.0376L369.47,136.8423a13.7031,13.7031,0,0,0,9.9531,4.3017l.12-.0009a13.7,13.7,0,0,0,9.9942-4.4776l22.3608-24.6289a6.9734,6.9734,0,0,0,1.2927-7.4552,7.3335,7.3335,0,0,0-6.822-4.3524h-6.7576a3.2309,3.2309,0,0,1-3.2307-3.2308V59.563A8.521,8.521,0,0,0,387.859,51.042Z"/></g></svg>